# xmcd
#
# Track frame offsets: 
#        150
#        14540
#        34730
#        60041
#        80340
#        104558
#        128411
#        149177
#        171066
#
# Disc length: 2787 seconds
#
# Revision: 0
# Processed by: cddbd v1.5.2PL0 Copyright (c) Steve Scherf et al.
# Submitted via: ExactAudioCopy v1.0b1
#
DISCID=700ae109
DTITLE=Danny Bryant's RedEyeBand - Just As I Am
DYEAR=2010
DGENRE=Blues Rock
TTITLE0=Shut Out The Light
TTITLE1=Blues For Buddy
TTITLE2=For The Last Time
TTITLE3=Every Time the Devil Smiles
TTITLE4=Just As I Am
TTITLE5=Master Of Disaster
TTITLE6=Day By Day
TTITLE7=The Hard Way
TTITLE8=Alone in the Dark
EXTD=
EXTT0=
EXTT1=
EXTT2=
EXTT3=
EXTT4=
EXTT5=
EXTT6=
EXTT7=
EXTT8=
PLAYORDER=
